<svg xmlns="http://www.w3.org/2000/svg" xmlns:xlink="http://www.w3.org/1999/xlink" width="2000" zoomAndPan="magnify" viewBox="0 0 1500 1499.999933" height="2000" preserveAspectRatio="xMidYMid meet" version="1.0"><defs><g/><clipPath id="988759df95"><path d="M 169.03125 501.328125 L 655.972656 501.328125 L 655.972656 998.671875 L 169.03125 998.671875 Z M 169.03125 501.328125 " clip-rule="nonzero"/></clipPath><clipPath id="f02fb710c2"><path d="M 168.128906 500.429688 L 656.871094 500.429688 L 656.871094 999.566406 L 168.128906 999.566406 Z M 168.128906 500.429688 " clip-rule="nonzero"/></clipPath></defs><rect x="-150" width="1800" fill="#ffffff" y="-149.999993" height="1799.99992" fill-opacity="1"/><rect x="-150" width="1800" fill="#7ed957" y="-149.999993" height="1799.99992" fill-opacity="1"/><g clip-path="url(#988759df95)"><path fill="#222222" d="M 656.871094 667.777344 L 656.871094 679.703125 C 654.488281 684.671875 650.515625 688.726562 646.484375 692.238281 C 640.789062 697.207031 634.582031 701.738281 627.863281 705.839844 C 621.261719 709.859375 616.335938 712.761719 613.082031 714.539062 C 598.019531 722.765625 582.296875 730.46875 565.910156 737.644531 C 547.507812 745.707031 538.289062 749.746094 538.257812 749.757812 C 533.871094 751.777344 530.4375 753.867188 527.953125 756.035156 C 525.472656 758.199219 523.105469 760.289062 520.855469 762.304688 C 518.101562 764.769531 515.796875 766.921875 513.941406 768.761719 C 509.007812 773.652344 505.824219 776.492188 500.03125 782.035156 C 492.335938 789.402344 485.207031 795.75 477.34375 802.417969 C 460.867188 816.390625 442.734375 828.019531 422.949219 837.296875 C 417.875 839.675781 414.460938 841.675781 410.671875 844.589844 C 409.332031 845.625 407.019531 847.433594 405.402344 849.027344 C 401.738281 852.628906 399.425781 854.988281 398.464844 856.113281 C 395.195312 859.929688 391.386719 864.992188 387.039062 871.300781 C 372.625 892.191406 358.777344 914.101562 345.488281 937.027344 C 338.253906 949.515625 331.765625 960.882812 326.027344 971.128906 C 321.964844 978.375 318 985.863281 314.132812 993.597656 C 312.59375 996.671875 311.597656 998.636719 311.140625 999.5 L 168.128906 999.5 L 168.128906 929.589844 C 171.867188 924.324219 175.683594 919.105469 179.570312 913.933594 C 191.890625 897.550781 201.480469 884.789062 208.339844 875.652344 C 216.726562 864.488281 224.816406 853.78125 232.617188 843.539062 C 239.734375 834.195312 247.835938 823.5 256.917969 811.453125 C 264.917969 800.839844 272.148438 790.578125 278.613281 780.664062 C 282.222656 775.125 285.226562 769.855469 287.625 764.851562 C 290.058594 759.765625 291.566406 754.570312 292.152344 749.265625 C 292.488281 746.242188 292.65625 744.722656 292.660156 744.703125 C 292.839844 743.394531 292.9375 741.867188 292.949219 740.125 C 292.976562 736.714844 292.976562 732.167969 292.941406 726.484375 C 292.917969 722.835938 292.367188 718.964844 292.386719 715.488281 C 292.402344 712.660156 291.824219 710.328125 291.863281 707.503906 C 291.867188 706.988281 291.726562 705.738281 291.441406 703.753906 C 291.304688 702.789062 291.238281 701.523438 291.242188 699.957031 C 291.242188 699.640625 291.195312 699.328125 291.105469 699.027344 C 290.816406 698.03125 290.691406 696.960938 290.734375 695.820312 C 290.800781 693.96875 290.191406 691.761719 290.148438 689.671875 C 290.128906 688.652344 290.050781 687.910156 289.910156 687.4375 C 289.613281 686.449219 289.703125 685.28125 289.574219 684.457031 C 289.339844 682.953125 288.980469 680.359375 288.492188 676.675781 C 288.238281 674.753906 287.804688 672.175781 287.199219 668.9375 C 286.507812 665.273438 285.976562 662.308594 285.609375 660.042969 C 285.34375 658.425781 285.195312 657.292969 285.164062 656.644531 C 285.089844 655.09375 284.683594 653.703125 284.667969 652.085938 C 284.640625 648.113281 284.640625 645.832031 284.667969 645.230469 C 284.722656 644.113281 284.953125 642.378906 285.359375 640.035156 C 285.617188 638.550781 286.054688 636.867188 286.671875 634.976562 C 289.222656 627.136719 292.351562 619.121094 294.40625 611.75 C 296.855469 602.949219 298.746094 595.652344 300.082031 589.855469 C 300.855469 586.484375 301.804688 581.546875 302.921875 575.046875 C 304.53125 565.679688 306.097656 557.734375 307.625 551.214844 C 308.34375 548.160156 308.710938 545.867188 308.734375 544.34375 C 308.773438 541.84375 308.628906 539.511719 308.300781 537.355469 C 307.597656 532.722656 306.230469 526.464844 304.195312 518.585938 C 304.160156 518.453125 303.980469 517.195312 303.65625 514.804688 C 303.445312 513.269531 303.441406 512.003906 303.644531 511.003906 C 304.277344 507.90625 305.761719 504.523438 308.503906 503.039062 C 311.664062 501.332031 315.046875 500.832031 318.648438 501.539062 C 321.953125 502.1875 324.964844 503.5 327.6875 505.488281 C 332.890625 509.285156 337.398438 514.078125 341.214844 519.867188 C 343.746094 523.710938 345.882812 527.5 347.617188 531.230469 C 348.488281 533.105469 349.398438 535.292969 350.34375 537.792969 C 351.621094 541.179688 352.5625 544.976562 353.164062 549.1875 C 353.730469 553.15625 354.007812 557.007812 353.988281 560.746094 C 353.984375 562.175781 353.867188 564.003906 353.644531 566.230469 C 353.433594 568.347656 353.355469 570.183594 353.414062 571.738281 C 353.421875 571.945312 353.308594 572.554688 353.074219 573.566406 C 352.640625 575.433594 353.046875 577.339844 352.445312 579.09375 C 352.332031 579.425781 352.28125 579.765625 352.289062 580.109375 C 352.335938 581.53125 352.257812 582.644531 352.050781 583.457031 C 351.585938 585.332031 351.929688 587.28125 351.320312 589.03125 C 351.246094 589.246094 351.210938 589.464844 351.210938 589.691406 C 351.226562 591.230469 351.074219 592.816406 350.753906 594.453125 C 350.679688 594.824219 350.644531 595.203125 350.644531 595.578125 C 350.644531 596.902344 350.503906 598.257812 350.230469 599.644531 C 350.179688 599.886719 350.160156 600.132812 350.164062 600.382812 C 350.191406 602.816406 350.09375 604.890625 349.875 606.609375 C 349.296875 611.121094 349.851562 615.339844 350.78125 619.484375 C 350.945312 620.214844 351.261719 620.96875 351.726562 621.746094 C 352.722656 623.394531 354.167969 624.074219 356.058594 623.777344 C 356.160156 623.761719 356.261719 623.730469 356.355469 623.6875 C 357.167969 623.292969 357.960938 623.4375 358.816406 623.136719 C 361.832031 622.085938 364.113281 621.152344 365.660156 620.339844 C 370.5625 617.765625 375.46875 614.839844 380.375 611.554688 C 391.347656 604.210938 401.757812 596.71875 411.597656 589.078125 C 418.496094 583.722656 423.117188 580.128906 425.464844 578.308594 C 428.773438 575.738281 431.511719 573.863281 433.679688 572.683594 C 440.128906 569.167969 447.003906 567.382812 454.410156 567.921875 C 455.867188 568.027344 457.398438 568.488281 458.578125 568.46875 C 458.71875 568.46875 458.84375 568.511719 458.960938 568.589844 C 459.136719 568.714844 459.324219 568.796875 459.519531 568.84375 C 467.808594 570.664062 474.183594 575.210938 478.644531 582.476562 C 478.777344 582.695312 478.835938 582.90625 478.824219 583.113281 C 478.8125 583.265625 478.875 583.371094 479.015625 583.429688 C 479.261719 583.53125 479.375 583.71875 479.347656 583.996094 C 479.328125 584.207031 479.394531 584.382812 479.550781 584.519531 C 479.5625 584.535156 479.585938 584.554688 479.617188 584.578125 C 479.679688 584.628906 479.726562 584.691406 479.75 584.769531 C 480.355469 586.53125 480.757812 587.738281 480.953125 588.390625 C 481.125 588.964844 480.945312 589.476562 481.210938 590.078125 C 481.414062 590.542969 481.523438 591.148438 481.535156 591.894531 C 481.585938 594.550781 481.566406 596.4375 481.472656 597.546875 C 481.453125 597.757812 481.394531 597.957031 481.296875 598.144531 C 481.082031 598.539062 480.996094 598.960938 481.03125 599.417969 C 481.050781 599.722656 481.011719 600.019531 480.910156 600.304688 C 479.839844 603.300781 479.015625 605.257812 478.4375 606.171875 C 477.921875 606.980469 477.289062 608.027344 476.539062 609.3125 C 476.492188 609.394531 476.488281 609.476562 476.53125 609.5625 C 476.574219 609.644531 476.644531 609.691406 476.738281 609.703125 L 481.441406 610.152344 C 481.515625 610.160156 481.589844 610.183594 481.65625 610.222656 C 482.410156 610.667969 483.898438 610.492188 484.863281 610.722656 C 488.328125 611.5625 491.128906 612.570312 493.273438 613.742188 C 499.269531 617.023438 503.914062 622.121094 506.015625 628.601562 C 506.847656 631.179688 507.222656 633.644531 507.132812 635.992188 C 507.066406 637.828125 506.578125 639.117188 506.378906 640.765625 C 506.367188 640.847656 506.296875 640.964844 506.167969 641.113281 C 506.058594 641.238281 506.007812 641.386719 506.007812 641.558594 C 506 642.46875 505.386719 643.035156 505.394531 643.800781 C 505.402344 644.136719 505.289062 644.367188 505.054688 644.492188 C 504.953125 644.550781 504.898438 644.636719 504.882812 644.753906 L 504.839844 645.21875 C 504.828125 645.351562 504.769531 645.460938 504.660156 645.546875 C 504.324219 645.808594 504.226562 646.25 504.375 646.871094 C 504.410156 647.039062 504.519531 647.128906 504.695312 647.132812 L 507.191406 647.214844 C 507.445312 647.21875 507.691406 647.265625 507.929688 647.355469 C 508.625 647.613281 509.382812 647.753906 510.203125 647.769531 C 510.417969 647.777344 510.632812 647.8125 510.839844 647.875 C 510.957031 647.914062 511.8125 648.164062 513.414062 648.625 C 519.15625 650.285156 524.007812 653.34375 527.960938 657.800781 C 530.523438 660.683594 532.402344 664.109375 533.601562 668.078125 C 533.636719 668.203125 533.660156 668.328125 533.667969 668.457031 C 533.703125 669.058594 533.855469 669.625 534.117188 670.160156 C 534.265625 670.453125 534.335938 670.765625 534.335938 671.089844 L 534.335938 677.996094 C 534.335938 678.230469 534.277344 678.445312 534.15625 678.648438 C 533.804688 679.226562 533.640625 679.945312 533.664062 680.804688 C 533.667969 680.988281 533.597656 681.136719 533.449219 681.25 C 533.179688 681.449219 533.0625 682.671875 532.796875 683.324219 C 530.140625 689.835938 525.785156 694.957031 519.722656 698.683594 C 519.566406 698.78125 519.453125 698.914062 519.386719 699.085938 C 519.316406 699.253906 519.304688 699.429688 519.351562 699.609375 C 519.984375 702.082031 521.609375 703.449219 524.222656 703.710938 C 528.300781 704.121094 532.207031 703.679688 535.945312 702.390625 C 536.453125 702.21875 536.988281 702.097656 537.558594 702.019531 C 537.59375 702.011719 537.628906 702.003906 537.664062 701.992188 L 544.949219 699.261719 C 551.050781 696.449219 557.324219 693.765625 563.773438 691.21875 C 570.1875 688.6875 575.199219 687.496094 582.320312 685.210938 C 589.132812 683.023438 594.988281 680.804688 599.882812 678.546875 C 606.144531 675.664062 611.210938 673.054688 615.074219 670.714844 C 618.640625 668.558594 621.898438 666.535156 624.851562 664.652344 C 627.429688 663.007812 630.316406 661.585938 633.507812 660.386719 C 637.398438 658.925781 641.019531 658.429688 644.363281 658.898438 C 645.359375 659.035156 645.902344 659.117188 645.984375 659.136719 C 646.878906 659.378906 647.425781 659.492188 647.621094 659.464844 C 647.789062 659.445312 647.917969 659.507812 648.011719 659.644531 C 648.140625 659.832031 648.421875 659.933594 648.851562 659.957031 C 649.574219 659.996094 649.527344 660.519531 650.214844 660.554688 C 650.320312 660.558594 650.421875 660.589844 650.507812 660.648438 C 652.59375 661.9375 654.140625 663.28125 655.152344 664.6875 C 655.4375 665.085938 656.007812 666.113281 656.871094 667.777344 Z M 656.871094 667.777344 " fill-opacity="1" fill-rule="nonzero"/></g><g clip-path="url(#f02fb710c2)"><path stroke-linecap="butt" transform="matrix(0.75, 0, 0, 0.75, 168.129585, 500.428353)" fill="none" stroke-linejoin="miter" d="M -0.000905358 0.00177947 L -0.000905358 665.517419 L 651.655401 665.517419 L 651.655401 0.00177947 L -0.000905358 0.00177947 " stroke="#222222" stroke-width="20" stroke-opacity="1" stroke-miterlimit="4"/></g><g fill="#222222" fill-opacity="1"><g transform="translate(700.991517, 718.499918)"><g><path d="M 101.6875 -16.984375 C 103.71875 -14.242188 104.550781 -11.5625 104.1875 -8.9375 C 103.832031 -6.3125 102.703125 -4.078125 100.796875 -2.234375 C 98.890625 -0.390625 96.59375 0.914062 93.90625 1.6875 C 91.226562 2.46875 88.488281 2.5 85.6875 1.78125 C 82.894531 1.070312 80.484375 -0.648438 78.453125 -3.390625 C 73.097656 -10.773438 67.113281 -17.59375 60.5 -23.84375 C 53.882812 -30.101562 46.765625 -35.738281 39.140625 -40.75 C 38.546875 -33.601562 37.976562 -26.515625 37.4375 -19.484375 C 36.90625 -12.453125 36.34375 -5.363281 35.75 1.78125 C 35.507812 5.238281 34.40625 7.976562 32.4375 10 C 30.46875 12.03125 28.113281 13.398438 25.375 14.109375 C 22.632812 14.828125 19.984375 14.828125 17.421875 14.109375 C 14.859375 13.398438 12.742188 12.03125 11.078125 10 C 9.410156 7.976562 8.695312 5.238281 8.9375 1.78125 C 10.007812 -11.320312 10.84375 -24.601562 11.4375 -38.0625 C 12.03125 -51.53125 13.640625 -64.695312 16.265625 -77.5625 C 17.578125 -84.113281 20.019531 -90.488281 23.59375 -96.6875 C 27.164062 -102.882812 31.722656 -108.035156 37.265625 -112.140625 C 42.804688 -116.253906 49.269531 -118.429688 56.65625 -118.671875 C 61.78125 -118.910156 66.632812 -117.957031 71.21875 -115.8125 C 75.800781 -113.664062 79.703125 -110.710938 82.921875 -106.953125 C 86.140625 -103.203125 88.3125 -98.914062 89.4375 -94.09375 C 90.570312 -89.269531 90.304688 -84.296875 88.640625 -79.171875 C 86.972656 -74.171875 84.265625 -69.375 80.515625 -64.78125 C 76.765625 -60.195312 72.445312 -56.238281 67.5625 -52.90625 C 80.300781 -42.65625 91.675781 -30.679688 101.6875 -16.984375 Z M 63.4375 -88.640625 C 62.96875 -91.023438 62.046875 -92.363281 60.671875 -92.65625 C 59.304688 -92.957031 57.757812 -92.570312 56.03125 -91.5 C 54.300781 -90.425781 52.601562 -89.054688 50.9375 -87.390625 C 49.269531 -85.722656 47.835938 -84.082031 46.640625 -82.46875 C 45.453125 -80.863281 44.679688 -79.707031 44.328125 -79 C 43.367188 -76.375 42.53125 -73.394531 41.8125 -70.0625 C 44.195312 -70.414062 46.34375 -71.15625 48.25 -72.28125 C 50.15625 -73.414062 52.003906 -74.816406 53.796875 -76.484375 C 54.503906 -77.203125 55.691406 -78.332031 57.359375 -79.875 C 59.035156 -81.425781 60.523438 -83.035156 61.828125 -84.703125 C 63.140625 -86.378906 63.675781 -87.691406 63.4375 -88.640625 Z M 63.4375 -88.640625 "/></g></g></g><g fill="#222222" fill-opacity="1"><g transform="translate(814.11553, 718.499918)"><g><path d="M 74.53125 -37.703125 C 77.976562 -37.585938 80.742188 -36.578125 82.828125 -34.671875 C 84.921875 -32.765625 86.289062 -30.46875 86.9375 -27.78125 C 87.59375 -25.101562 87.59375 -22.453125 86.9375 -19.828125 C 86.289062 -17.210938 84.921875 -15.039062 82.828125 -13.3125 C 80.742188 -11.582031 77.976562 -10.78125 74.53125 -10.90625 C 66.425781 -11.257812 58.320312 -11.226562 50.21875 -10.8125 C 42.113281 -10.394531 34.015625 -9.53125 25.921875 -8.21875 C 23.410156 -7.863281 20.785156 -8.128906 18.046875 -9.015625 C 15.304688 -9.910156 13.015625 -11.367188 11.171875 -13.390625 C 9.328125 -15.421875 8.640625 -18.046875 9.109375 -21.265625 C 11.140625 -37.710938 13.375 -54.15625 15.8125 -70.59375 C 18.257812 -87.03125 20.910156 -103.472656 23.765625 -119.921875 C 24.128906 -121.941406 24.847656 -123.671875 25.921875 -125.109375 C 26.867188 -126.773438 28.234375 -128.171875 30.015625 -129.296875 C 31.804688 -130.429688 34.015625 -131.054688 36.640625 -131.171875 C 49.503906 -131.535156 62.367188 -131.300781 75.234375 -130.46875 C 78.691406 -130.226562 81.460938 -129.125 83.546875 -127.15625 C 85.628906 -125.1875 87 -122.863281 87.65625 -120.1875 C 88.3125 -117.507812 88.3125 -114.859375 87.65625 -112.234375 C 87 -109.609375 85.628906 -107.460938 83.546875 -105.796875 C 81.460938 -104.128906 78.691406 -103.414062 75.234375 -103.65625 C 66.421875 -104.25 57.425781 -104.546875 48.25 -104.546875 C 47.65625 -101.097656 47.0625 -97.644531 46.46875 -94.1875 C 45.875 -90.726562 45.335938 -87.269531 44.859375 -83.8125 C 49.742188 -83.695312 54.453125 -83.398438 58.984375 -82.921875 C 62.554688 -82.566406 65.679688 -81.226562 68.359375 -78.90625 C 71.035156 -76.582031 72.375 -73.453125 72.375 -69.515625 C 72.375 -67.253906 71.75 -65.050781 70.5 -62.90625 C 69.25 -60.757812 67.609375 -59.03125 65.578125 -57.71875 C 63.554688 -56.414062 61.359375 -55.882812 58.984375 -56.125 C 52.898438 -56.71875 46.820312 -57.015625 40.75 -57.015625 C 40.269531 -53.671875 39.789062 -50.269531 39.3125 -46.8125 C 38.84375 -43.363281 38.367188 -39.972656 37.890625 -36.640625 C 43.960938 -37.234375 50.035156 -37.617188 56.109375 -37.796875 C 62.191406 -37.972656 68.332031 -37.941406 74.53125 -37.703125 Z M 74.53125 -37.703125 "/></g></g></g><g fill="#222222" fill-opacity="1"><g transform="translate(911.155561, 718.499918)"><g><path d="M 78.640625 -108.296875 C 79.109375 -111.640625 80.351562 -114.082031 82.375 -115.625 C 84.40625 -117.175781 86.757812 -117.953125 89.4375 -117.953125 C 92.125 -117.953125 94.71875 -117.238281 97.21875 -115.8125 C 99.71875 -114.382812 101.679688 -112.414062 103.109375 -109.90625 C 104.546875 -107.40625 105.023438 -104.488281 104.546875 -101.15625 C 99.660156 -68.269531 93.585938 -35.625 86.328125 -3.21875 C 85.722656 -0.59375 84.378906 1.550781 82.296875 3.21875 C 80.210938 4.882812 77.800781 5.925781 75.0625 6.34375 C 72.320312 6.757812 69.726562 6.460938 67.28125 5.453125 C 64.84375 4.441406 63.03125 2.625 61.84375 0 C 59.09375 -6.550781 56.285156 -13.070312 53.421875 -19.5625 C 50.566406 -26.0625 47.710938 -32.523438 44.859375 -38.953125 C 43.066406 -31.210938 41.335938 -23.441406 39.671875 -15.640625 C 38.003906 -7.835938 36.457031 -0.0625 35.03125 7.6875 C 34.4375 11.144531 33.066406 13.644531 30.921875 15.1875 C 28.773438 16.738281 26.359375 17.484375 23.671875 17.421875 C 20.992188 17.359375 18.429688 16.640625 15.984375 15.265625 C 13.546875 13.898438 11.640625 11.96875 10.265625 9.46875 C 8.898438 6.96875 8.578125 3.988281 9.296875 0.53125 C 14.535156 -27.820312 20.96875 -55.9375 28.59375 -83.8125 C 29.3125 -86.320312 30.738281 -88.410156 32.875 -90.078125 C 35.019531 -91.742188 37.429688 -92.8125 40.109375 -93.28125 C 42.796875 -93.757812 45.332031 -93.519531 47.71875 -92.5625 C 50.101562 -91.613281 51.890625 -89.769531 53.078125 -87.03125 L 68.8125 -50.75 C 70.71875 -60.28125 72.472656 -69.84375 74.078125 -79.4375 C 75.679688 -89.03125 77.203125 -98.648438 78.640625 -108.296875 Z M 78.640625 -108.296875 "/></g></g></g><g fill="#222222" fill-opacity="1"><g transform="translate(1024.815708, 718.499918)"><g><path d="M 81.5 -122.78125 C 84.832031 -122.300781 87.507812 -121.046875 89.53125 -119.015625 C 91.5625 -116.992188 92.929688 -114.613281 93.640625 -111.875 C 94.359375 -109.132812 94.359375 -106.453125 93.640625 -103.828125 C 92.929688 -101.210938 91.5625 -99.160156 89.53125 -97.671875 C 87.507812 -96.179688 84.832031 -95.613281 81.5 -95.96875 C 76.019531 -96.6875 70.300781 -97.222656 64.34375 -97.578125 C 63.507812 -84.585938 62.703125 -71.597656 61.921875 -58.609375 C 61.148438 -45.628906 60.347656 -32.585938 59.515625 -19.484375 C 59.390625 -16.140625 58.34375 -13.425781 56.375 -11.34375 C 54.414062 -9.257812 52.09375 -7.859375 49.40625 -7.140625 C 46.726562 -6.429688 44.078125 -6.429688 41.453125 -7.140625 C 38.835938 -7.859375 36.695312 -9.226562 35.03125 -11.25 C 33.363281 -13.28125 32.585938 -16.023438 32.703125 -19.484375 C 33.535156 -32.585938 34.335938 -45.660156 35.109375 -58.703125 C 35.890625 -71.753906 36.695312 -84.832031 37.53125 -97.9375 C 32.164062 -97.695312 26.921875 -97.335938 21.796875 -96.859375 C 18.347656 -96.503906 15.578125 -97.128906 13.484375 -98.734375 C 11.398438 -100.347656 10.03125 -102.460938 9.375 -105.078125 C 8.726562 -107.703125 8.757812 -110.351562 9.46875 -113.03125 C 10.1875 -115.71875 11.554688 -118.070312 13.578125 -120.09375 C 15.609375 -122.125 18.347656 -123.316406 21.796875 -123.671875 C 41.703125 -125.703125 61.601562 -125.40625 81.5 -122.78125 Z M 81.5 -122.78125 "/></g></g></g><g fill="#222222" fill-opacity="1"><g transform="translate(1127.93191, 718.499918)"><g><path d="M 92.578125 -78.09375 C 92.929688 -66.300781 93.226562 -54.445312 93.46875 -42.53125 C 93.707031 -30.613281 94.003906 -18.703125 94.359375 -6.796875 C 94.484375 -3.335938 93.648438 -0.566406 91.859375 1.515625 C 90.078125 3.597656 87.875 4.96875 85.25 5.625 C 82.625 6.28125 79.972656 6.28125 77.296875 5.625 C 74.617188 4.96875 72.351562 3.597656 70.5 1.515625 C 68.65625 -0.566406 67.675781 -3.335938 67.5625 -6.796875 C 67.4375 -10.367188 67.34375 -13.910156 67.28125 -17.421875 C 67.226562 -20.941406 67.140625 -24.488281 67.015625 -28.0625 L 40.21875 -29.125 C 39.257812 -24.601562 38.363281 -20.109375 37.53125 -15.640625 C 36.695312 -11.171875 35.863281 -6.671875 35.03125 -2.140625 C 34.4375 1.304688 33.09375 3.804688 31 5.359375 C 28.914062 6.910156 26.503906 7.65625 23.765625 7.59375 C 21.023438 7.53125 18.429688 6.8125 15.984375 5.4375 C 13.546875 4.070312 11.640625 2.140625 10.265625 -0.359375 C 8.898438 -2.859375 8.515625 -5.835938 9.109375 -9.296875 C 11.253906 -20.972656 13.664062 -32.53125 16.34375 -43.96875 C 19.03125 -55.40625 22.816406 -66.546875 27.703125 -77.390625 C 30.085938 -82.742188 33.125 -88.519531 36.8125 -94.71875 C 40.507812 -100.914062 44.707031 -106.601562 49.40625 -111.78125 C 54.113281 -116.96875 59.328125 -120.753906 65.046875 -123.140625 C 70.410156 -125.398438 74.757812 -125.816406 78.09375 -124.390625 C 81.4375 -122.960938 84.0625 -120.398438 85.96875 -116.703125 C 87.875 -113.003906 89.269531 -108.742188 90.15625 -103.921875 C 91.050781 -99.097656 91.644531 -94.363281 91.9375 -89.71875 C 92.238281 -85.070312 92.453125 -81.195312 92.578125 -78.09375 Z M 47.546875 -55.578125 C 50.753906 -55.460938 53.90625 -55.34375 57 -55.21875 C 60.101562 -55.101562 63.203125 -54.984375 66.296875 -54.859375 C 66.179688 -58.796875 66.09375 -62.695312 66.03125 -66.5625 C 65.976562 -70.4375 65.890625 -74.28125 65.765625 -78.09375 C 65.648438 -79.644531 65.59375 -81.285156 65.59375 -83.015625 C 65.59375 -84.742188 65.59375 -86.5 65.59375 -88.28125 C 63.5625 -85.90625 61.832031 -83.644531 60.40625 -81.5 C 58.019531 -77.925781 55.84375 -74.203125 53.875 -70.328125 C 51.914062 -66.453125 50.160156 -62.550781 48.609375 -58.625 C 48.492188 -58.144531 48.34375 -57.632812 48.15625 -57.09375 C 47.976562 -56.5625 47.773438 -56.054688 47.546875 -55.578125 Z M 47.546875 -55.578125 "/></g></g></g><g fill="#222222" fill-opacity="1"><g transform="translate(1231.226823, 718.499918)"><g><path d="M 78.8125 -57.71875 C 82.269531 -57.957031 85.007812 -57.273438 87.03125 -55.671875 C 89.0625 -54.066406 90.429688 -51.953125 91.140625 -49.328125 C 91.859375 -46.703125 91.859375 -44.019531 91.140625 -41.28125 C 90.429688 -38.539062 89.03125 -36.1875 86.9375 -34.21875 C 84.851562 -32.257812 82.144531 -31.160156 78.8125 -30.921875 C 69.757812 -30.203125 60.851562 -29.035156 52.09375 -27.421875 C 43.332031 -25.816406 34.609375 -23.765625 25.921875 -21.265625 C 23.410156 -20.546875 20.785156 -20.691406 18.046875 -21.703125 C 15.304688 -22.722656 13.039062 -24.332031 11.25 -26.53125 C 9.46875 -28.738281 8.695312 -31.332031 8.9375 -34.3125 C 10.363281 -48.25 11.757812 -62.1875 13.125 -76.125 C 14.5 -90.070312 15.84375 -104.015625 17.15625 -117.953125 C 17.507812 -121.285156 18.695312 -123.992188 20.71875 -126.078125 C 22.75 -128.171875 25.132812 -129.539062 27.875 -130.1875 C 30.613281 -130.84375 33.265625 -130.84375 35.828125 -130.1875 C 38.390625 -129.539062 40.472656 -128.171875 42.078125 -126.078125 C 43.691406 -123.992188 44.320312 -121.285156 43.96875 -117.953125 C 42.894531 -106.867188 41.820312 -95.816406 40.75 -84.796875 C 39.675781 -73.773438 38.601562 -62.785156 37.53125 -51.828125 C 50.988281 -54.691406 64.75 -56.65625 78.8125 -57.71875 Z M 78.8125 -57.71875 "/></g></g></g><g fill="#222222" fill-opacity="1"><g transform="translate(700.991517, 896.999903)"><g><path d="M 109.90625 -97.9375 C 110.976562 -92.570312 110.679688 -87.804688 109.015625 -83.640625 C 107.347656 -79.472656 104.695312 -75.804688 101.0625 -72.640625 C 97.425781 -69.484375 93.226562 -66.773438 88.46875 -64.515625 C 89.894531 -62.367188 90.992188 -60.015625 91.765625 -57.453125 C 92.546875 -54.890625 92.9375 -52.0625 92.9375 -48.96875 C 93.050781 -43.363281 91.882812 -38.148438 89.4375 -33.328125 C 87 -28.503906 83.722656 -24.242188 79.609375 -20.546875 C 75.503906 -16.859375 70.921875 -13.878906 65.859375 -11.609375 C 60.796875 -9.347656 55.703125 -7.921875 50.578125 -7.328125 C 43.191406 -6.367188 36.28125 -7.050781 29.84375 -9.375 C 23.40625 -11.707031 18.25 -15.523438 14.375 -20.828125 C 10.507812 -26.128906 8.695312 -32.769531 8.9375 -40.75 C 9.289062 -53.738281 10.597656 -66.875 12.859375 -80.15625 C 15.128906 -93.4375 17.15625 -106.515625 18.9375 -119.390625 C 19.414062 -122.597656 21.203125 -125.097656 24.296875 -126.890625 C 27.398438 -128.679688 30.441406 -129.394531 33.421875 -129.03125 C 33.898438 -129.269531 34.316406 -129.507812 34.671875 -129.75 C 39.796875 -131.539062 45.425781 -132.550781 51.5625 -132.78125 C 57.695312 -133.019531 63.890625 -132.453125 70.140625 -131.078125 C 76.398438 -129.710938 82.300781 -127.570312 87.84375 -124.65625 C 93.382812 -121.738281 98.117188 -118.046875 102.046875 -113.578125 C 105.984375 -109.109375 108.601562 -103.894531 109.90625 -97.9375 Z M 64.34375 -104.90625 C 60.644531 -105.976562 57.15625 -106.453125 53.875 -106.328125 C 50.601562 -106.210938 47.238281 -105.617188 43.78125 -104.546875 C 43.1875 -100.617188 42.648438 -96.75 42.171875 -92.9375 C 41.703125 -89.125 41.226562 -85.25 40.75 -81.3125 C 41.582031 -81.550781 42.414062 -81.671875 43.25 -81.671875 C 43.96875 -81.671875 44.921875 -81.671875 46.109375 -81.671875 C 49.921875 -81.671875 53.671875 -81.96875 57.359375 -82.5625 C 61.054688 -83.164062 64.753906 -84.117188 68.453125 -85.421875 C 69.398438 -85.785156 71.066406 -86.441406 73.453125 -87.390625 C 75.835938 -88.347656 78.039062 -89.363281 80.0625 -90.4375 C 82.09375 -91.507812 83.164062 -92.460938 83.28125 -93.296875 C 83.40625 -94.597656 82.628906 -95.875 80.953125 -97.125 C 79.285156 -98.382812 77.289062 -99.578125 74.96875 -100.703125 C 72.644531 -101.835938 70.46875 -102.789062 68.4375 -103.5625 C 66.414062 -104.34375 65.050781 -104.789062 64.34375 -104.90625 Z M 62.375 -41.109375 C 65.113281 -44.085938 66.273438 -46.5 65.859375 -48.34375 C 65.441406 -50.1875 64.097656 -51.554688 61.828125 -52.453125 C 59.566406 -53.347656 56.945312 -53.972656 53.96875 -54.328125 C 50.988281 -54.679688 48.3125 -54.859375 45.9375 -54.859375 C 44.863281 -54.859375 43.96875 -54.859375 43.25 -54.859375 C 41.101562 -54.859375 39.140625 -55.28125 37.359375 -56.125 C 37.234375 -54.570312 37.082031 -53.019531 36.90625 -51.46875 C 36.726562 -49.914062 36.519531 -48.367188 36.28125 -46.828125 C 36.15625 -45.160156 35.914062 -43.070312 35.5625 -40.5625 C 35.207031 -38.0625 35.566406 -36.21875 36.640625 -35.03125 C 38.179688 -33.601562 40.171875 -32.859375 42.609375 -32.796875 C 45.054688 -32.734375 47.59375 -33.148438 50.21875 -34.046875 C 52.84375 -34.941406 55.253906 -36.039062 57.453125 -37.34375 C 59.660156 -38.65625 61.300781 -39.910156 62.375 -41.109375 Z M 62.375 -41.109375 "/></g></g></g><g fill="#222222" fill-opacity="1"><g transform="translate(820.370413, 896.999903)"><g><path d="M 92.578125 -78.09375 C 92.929688 -66.300781 93.226562 -54.445312 93.46875 -42.53125 C 93.707031 -30.613281 94.003906 -18.703125 94.359375 -6.796875 C 94.484375 -3.335938 93.648438 -0.566406 91.859375 1.515625 C 90.078125 3.597656 87.875 4.96875 85.25 5.625 C 82.625 6.28125 79.972656 6.28125 77.296875 5.625 C 74.617188 4.96875 72.351562 3.597656 70.5 1.515625 C 68.65625 -0.566406 67.675781 -3.335938 67.5625 -6.796875 C 67.4375 -10.367188 67.34375 -13.910156 67.28125 -17.421875 C 67.226562 -20.941406 67.140625 -24.488281 67.015625 -28.0625 L 40.21875 -29.125 C 39.257812 -24.601562 38.363281 -20.109375 37.53125 -15.640625 C 36.695312 -11.171875 35.863281 -6.671875 35.03125 -2.140625 C 34.4375 1.304688 33.09375 3.804688 31 5.359375 C 28.914062 6.910156 26.503906 7.65625 23.765625 7.59375 C 21.023438 7.53125 18.429688 6.8125 15.984375 5.4375 C 13.546875 4.070312 11.640625 2.140625 10.265625 -0.359375 C 8.898438 -2.859375 8.515625 -5.835938 9.109375 -9.296875 C 11.253906 -20.972656 13.664062 -32.53125 16.34375 -43.96875 C 19.03125 -55.40625 22.816406 -66.546875 27.703125 -77.390625 C 30.085938 -82.742188 33.125 -88.519531 36.8125 -94.71875 C 40.507812 -100.914062 44.707031 -106.601562 49.40625 -111.78125 C 54.113281 -116.96875 59.328125 -120.753906 65.046875 -123.140625 C 70.410156 -125.398438 74.757812 -125.816406 78.09375 -124.390625 C 81.4375 -122.960938 84.0625 -120.398438 85.96875 -116.703125 C 87.875 -113.003906 89.269531 -108.742188 90.15625 -103.921875 C 91.050781 -99.097656 91.644531 -94.363281 91.9375 -89.71875 C 92.238281 -85.070312 92.453125 -81.195312 92.578125 -78.09375 Z M 47.546875 -55.578125 C 50.753906 -55.460938 53.90625 -55.34375 57 -55.21875 C 60.101562 -55.101562 63.203125 -54.984375 66.296875 -54.859375 C 66.179688 -58.796875 66.09375 -62.695312 66.03125 -66.5625 C 65.976562 -70.4375 65.890625 -74.28125 65.765625 -78.09375 C 65.648438 -79.644531 65.59375 -81.285156 65.59375 -83.015625 C 65.59375 -84.742188 65.59375 -86.5 65.59375 -88.28125 C 63.5625 -85.90625 61.832031 -83.644531 60.40625 -81.5 C 58.019531 -77.925781 55.84375 -74.203125 53.875 -70.328125 C 51.914062 -66.453125 50.160156 -62.550781 48.609375 -58.625 C 48.492188 -58.144531 48.34375 -57.632812 48.15625 -57.09375 C 47.976562 -56.5625 47.773438 -56.054688 47.546875 -55.578125 Z M 47.546875 -55.578125 "/></g></g></g><g fill="#222222" fill-opacity="1"><g transform="translate(923.665326, 896.999903)"><g><path d="M 66.65625 -77.203125 C 73.332031 -72.679688 78.601562 -66.785156 82.46875 -59.515625 C 86.34375 -52.242188 87.863281 -44.5 87.03125 -36.28125 C 86.195312 -29.132812 83.753906 -23 79.703125 -17.875 C 75.648438 -12.75 70.675781 -8.753906 64.78125 -5.890625 C 58.882812 -3.035156 52.628906 -1.457031 46.015625 -1.15625 C 39.398438 -0.863281 33.054688 -1.96875 26.984375 -4.46875 C 20.910156 -6.96875 15.785156 -11.019531 11.609375 -16.625 C 9.472656 -19.363281 8.582031 -22.015625 8.9375 -24.578125 C 9.289062 -27.140625 10.390625 -29.375 12.234375 -31.28125 C 14.085938 -33.1875 16.382812 -34.523438 19.125 -35.296875 C 21.863281 -36.066406 24.632812 -36.09375 27.4375 -35.375 C 30.238281 -34.664062 32.648438 -32.941406 34.671875 -30.203125 C 35.617188 -28.890625 37.40625 -28.144531 40.03125 -27.96875 C 42.65625 -27.789062 45.273438 -27.910156 47.890625 -28.328125 C 50.515625 -28.742188 52.363281 -29.191406 53.4375 -29.671875 C 55.9375 -30.859375 57.8125 -32.613281 59.0625 -34.9375 C 60.3125 -37.257812 60.757812 -39.789062 60.40625 -42.53125 C 60.050781 -45.875 58.859375 -48.613281 56.828125 -50.75 C 54.804688 -52.894531 52.394531 -54.769531 49.59375 -56.375 C 46.789062 -57.988281 43.957031 -59.539062 41.09375 -61.03125 C 38.238281 -62.519531 35.738281 -64.160156 33.59375 -65.953125 C 27.632812 -71.191406 24 -76.878906 22.6875 -83.015625 C 21.382812 -89.148438 21.832031 -95.285156 24.03125 -101.421875 C 26.238281 -107.554688 29.664062 -113.125 34.3125 -118.125 C 38.957031 -123.132812 44.257812 -127.007812 50.21875 -129.75 C 53.4375 -131.300781 56.414062 -131.71875 59.15625 -131 C 61.894531 -130.28125 64.25 -128.9375 66.21875 -126.96875 C 68.1875 -125.007812 69.523438 -122.71875 70.234375 -120.09375 C 70.953125 -117.476562 70.832031 -114.945312 69.875 -112.5 C 68.925781 -110.0625 66.898438 -108.125 63.796875 -106.6875 C 61.773438 -105.738281 59.421875 -104.429688 56.734375 -102.765625 C 54.054688 -101.097656 51.851562 -99.101562 50.125 -96.78125 C 48.40625 -94.457031 48.078125 -91.863281 49.140625 -89 C 49.742188 -87.09375 51.144531 -85.453125 53.34375 -84.078125 C 55.550781 -82.710938 57.90625 -81.492188 60.40625 -80.421875 C 62.90625 -79.347656 64.988281 -78.273438 66.65625 -77.203125 Z M 66.65625 -77.203125 "/></g></g></g><g fill="#222222" fill-opacity="1"><g transform="translate(1019.811803, 896.999903)"><g><path d="M 16.984375 -110.09375 C 17.335938 -113.425781 18.523438 -116.101562 20.546875 -118.125 C 22.578125 -120.15625 24.960938 -121.523438 27.703125 -122.234375 C 30.441406 -122.953125 33.117188 -122.984375 35.734375 -122.328125 C 38.359375 -121.671875 40.445312 -120.300781 42 -118.21875 C 43.550781 -116.132812 44.144531 -113.425781 43.78125 -110.09375 C 40.332031 -77.800781 37.65625 -45.453125 35.75 -13.046875 C 35.507812 -9.585938 34.4375 -6.816406 32.53125 -4.734375 C 30.625 -2.648438 28.328125 -1.28125 25.640625 -0.625 C 22.960938 0.03125 20.3125 0.03125 17.6875 -0.625 C 15.070312 -1.28125 12.898438 -2.648438 11.171875 -4.734375 C 9.441406 -6.816406 8.695312 -9.585938 8.9375 -13.046875 C 10.84375 -45.453125 13.523438 -77.800781 16.984375 -110.09375 Z M 16.984375 -110.09375 "/></g></g></g><g fill="#222222" fill-opacity="1"><g transform="translate(1072.710236, 896.999903)"><g><path d="M 79.53125 -42.890625 C 82.863281 -43.847656 85.75 -43.726562 88.1875 -42.53125 C 90.632812 -41.34375 92.539062 -39.554688 93.90625 -37.171875 C 95.28125 -34.785156 96 -32.222656 96.0625 -29.484375 C 96.125 -26.742188 95.410156 -24.210938 93.921875 -21.890625 C 92.429688 -19.566406 90.015625 -17.988281 86.671875 -17.15625 C 80.597656 -15.363281 74.375 -14.050781 68 -13.21875 C 61.625 -12.382812 55.304688 -12.351562 49.046875 -13.125 C 42.796875 -13.90625 36.8125 -15.90625 31.09375 -19.125 C 23.707031 -23.414062 18.078125 -29.253906 14.203125 -36.640625 C 10.335938 -44.023438 8.582031 -51.945312 8.9375 -60.40625 C 9.414062 -68.75 11.5 -76.757812 15.1875 -84.4375 C 18.882812 -92.125 23.800781 -98.882812 29.9375 -104.71875 C 36.070312 -110.5625 43.039062 -115.0625 50.84375 -118.21875 C 58.644531 -121.375 66.773438 -122.65625 75.234375 -122.0625 C 78.691406 -121.707031 81.460938 -120.546875 83.546875 -118.578125 C 85.628906 -116.609375 87 -114.285156 87.65625 -111.609375 C 88.3125 -108.929688 88.3125 -106.28125 87.65625 -103.65625 C 87 -101.03125 85.628906 -98.882812 83.546875 -97.21875 C 81.460938 -95.550781 78.691406 -94.894531 75.234375 -95.25 C 69.046875 -95.726562 63.179688 -94.566406 57.640625 -91.765625 C 52.097656 -88.972656 47.421875 -85.070312 43.609375 -80.0625 C 39.796875 -75.0625 37.351562 -69.519531 36.28125 -63.4375 C 35.207031 -57.957031 35.472656 -53.578125 37.078125 -50.296875 C 38.691406 -47.023438 41.101562 -44.613281 44.3125 -43.0625 C 47.53125 -41.519531 51.195312 -40.566406 55.3125 -40.203125 C 59.425781 -39.847656 63.597656 -39.96875 67.828125 -40.5625 C 72.054688 -41.164062 75.957031 -41.941406 79.53125 -42.890625 Z M 79.53125 -42.890625 "/></g></g></g></svg>